<svg xmlns="http://www.w3.org/2000/svg" viewBox="0 0 10240 10240"><path fill="#d94f4f" d="M0 5120V0h10240v10240H0z"/><path fill="#fff" d="M4523 8802c-130-46-232-162-337-382-149-312-266-809-380-1610-39-271-62-440-136-1002-22-165-26-194-65-453-61-402-143-786-186-871-34-69-109-86-158-36-65 65-160 532-251 1232-110 847-158 1143-233 1441-86 335-173 522-311 662a365 365 0 0 1-331 92 461 461 0 0 1-289-205c-118-164-190-367-336-944-124-493-171-630-266-783a521 521 0 0 0-179-177c-39-21-50-21-552-24l-513-3v-620l533 4c595 4 573 2 726 79 159 80 300 248 417 493 82 172 154 399 264 833 147 583 158 611 229 633 34 10 44 9 72-7 43-26 62-60 94-168 56-196 110-507 185-1076 122-919 169-1200 255-1510 65-237 121-376 200-496 79-122 127-169 214-212 68-33 83-37 155-37 118 0 185 33 267 131 127 152 224 394 313 779 38 162 95 465 120 635l36 240 50 370 90 683c76 560 156 1003 235 1293 38 136 60 177 102 191 65 22 123-22 142-109 60-266 128-829 176-1458 13-164 14-188 20-275l10-150 20-320 20-320 10-170 10-170 10-170 10-165 10-132 20-298 20-265c19-252 70-753 96-950 126-950 304-1443 568-1573 47-23 69-27 136-27 72 0 89 4 150 34 343 169 542 860 684 2371 12 118 39 427 61 685 67 780 100 1099 151 1450 29 206 85 471 106 508 27 46 78 69 125 56 49-13 70-45 112-173 69-208 106-377 201-926 121-699 181-937 292-1170 54-112 79-147 150-217 84-80 128-98 248-98 77 0 109 5 140 19 188 89 314 293 461 748 156 483 177 546 200 600 97 231 162 321 289 399l40 24 498 3 497 3v610l-532-3-533-3-75-28a745 745 0 0 1-339-267c-143-189-217-357-400-916-66-203-130-384-141-402q-32-51-97-52c-34 0-88 56-102 105-23 83-82 368-116 565-58 335-65 374-116 630-74 373-136 598-220 798-134 315-323 490-535 493-79 1-130-14-188-55-204-145-345-587-446-1401-39-316-60-531-120-1250-112-1340-179-1820-310-2247-25-81-36-102-64-123-53-40-105-32-145 24-76 106-201 871-257 1561-3 47-8 92-9 100a5927 5927 0 0 1-20 260l-10 130-10 160c-13 187-27 417-40 655l-10 160-10 180-20 345-50 730-15 190c-71 891-185 1509-338 1830a788 788 0 0 1-154 225c-83 70-197 92-295 57"/></svg>
