<svg xmlns="http://www.w3.org/2000/svg" fill="#fff" viewBox="0 0 149 129"><path
    d="M24.9 119.5c2.5.7 2.3-.2 5.1-.2 1.7 0 4-.7 4-.1l.3.6c.4 1 2.2.5 2 1.5-.4 1 1 4 2.4 2.4 1-1 2.2-2 2.1-3.5q.1-1.1.8-.5c.3.3.4.9.1.9l-.3 2.4c-.2.7.3 1.8 1 1.8.4 0 .3.3.6.3l.5.3c.6 0 1.5.4 1.9-1.8l.2-1.2c.5-.5-.2 2.3 1.5 4.5q.5.7 1.3 0c.8-.7 1.4 1.1 2.2.5 1.8-1.2 2.4-3.9 2.4-1.5 0 1.8.6 3 2 2 1.5-1 1.6-.8 2.4.6.7 1 1.9.5 2-2 .1-2.4 0-1.7.9-3.2 1-1.9 1-2.2 1.3-5 .3-3.2 2.7-9.8 2.7-1.8 0 1.4.4 1.1.6 4q.3 5.1.7 4.8.2 0 .1.1c-.1.4 1.4 1.6 2.1 1.6 1.3 0 4-4.4 4-4.5s.8-1.8.8-2.5l.1-.6c1.3-4.6 1.3-6.2 1.4-6.3.2 0 .1-.7.3-.8s.1-1 .3-1.1l.1-.3c0-.2 1-3.5 2.8-3.5 1 0 2.1.9 2.4 2.6 1.4 13.5 1.7 13.3 1.7 13.5 0 1 1.6 3 3.2 2.1 2.9-1.5 3.3-5.6 3.3-7.8l.2-.8c.1-.2 0-.6.7-3.6s1.3 4.4 1.5 4.9l.5 2.8.3 2.2.2.3c.4 1 2.4-.4 2.4-1.7 0-1.5.8-.3 1.8-2.3l.4-1.1c.3-.8 1 1.3 2.4.5l.6-.3.6.5q1 .8 1.6 0c.6-.7 3-.8 3-.5q.2.2.2 0c-.1-.4 1.3-1.1 1.7-.5 3.9-.2 13.5-.6 19-1 4-.3-3.6-1.2-5-1.3-5-.2-2.3.7-10.4.2-1.3 0-1.5 0-1.7.2-.9 1-1.7-1.5-3.2-.4-1 .8-1-.5-3.2.8-2.4 1.5-1.2-1.5-2-2-1.3-.9-2.7 1-3 .3 0-.2-.3 0-.5-.6-.4-1-2-.6-2 0 0 .1-.3 0-.3.6 0 2-1.6 5.6-1.7 2 0-2 .2-4.9-1.3-6.6l-.2-.4c-.1-.2-.4 0-.6-.3q0-.3-.5 0c-.8.5-2.6 3.1-2.6 3.8v.4l-1.2 6.9c-.3.3-.7 2.9-1.5 3-2.3.3-1.8-6.9-2.2-7.6l-.3-6.2c0-5.5-6.3-5.8-8.1-1.5-1.7 3.9-1.7 4.7-1.8 5.7 0 .8-.2.6-.2.9l-.7 2.7-.2.8c-.8 5.7-2.2 6.2-3.1 6.2-.6 0-.4-.5-.5-.6-1.5-15-1.8-15-1.8-15.4 0-.8-1.5-2-2.3-2-3.8 0-3.9 10.2-4 4.2 0-1.4-1.7-4.4-3.2-2.8-.8.8-.8 1-1 3.3a8 8 0 0 1-.7 2.7c-.3.3-.6-1-.3-2 .8-2.5-2.4-2.8-2.6-.5 0 .7-.6.5-.6.7l-.8.4c-.3.6-1.3.1-1.7.4-1 .9-2.6-.7-3 2-.3 2.2-.4 2.3-1.4 1.1-.8-1-1 .4-2.3-.8-.5-.5-.5-.7-1.5-.2-.8.4-1.8 1.4-1.8 1.8q-.2 1.3-.9.4c-.2-.4-1-.5-1-.2-.2.2-1 .2-1.4-.3-.8-1-1.5-.1-2.6-.1-2.3 0-13.6 1-7.5 2.6m25.2-4.9c.7.2-.1 3-.3 1q-.2-1.2.3-1"
  /><path
    d="M71.3 99.3c.4-.3 4.5-1.2 4.8-.7a73 73 0 0 0 12.8 6.8l4.2 1.4a167 167 0 0 0 24.6 5.7l25.7-.4c3.7-1.8 3 .3 4.7-3.5.2-.5.3-1.7.4-5.2.3-9.1-1.4-17.7-2.3-26.7-2.7-15.2-2.8-21.1-3-21.3-.4-.4-.1-5.7-.6-6.7L141 36.2q-1.2-2.5-3.3-2.8-5.2-2.8-5.6-2.8c-5.8-1.8-8.3-2.9-9.5-2.9-.5 0-.2-.2-1.2-.5l-2.3-.7-1-.3s.5 0-2.9-1.1q-1.5-.7-3.1-1.2c-.4-.1-.3-.3-.6-.3h-.4c0-.2-2.7-1.2-3.5-1.3-3-1.5-3.2-1.3-3.4-1.5l-.4-.2c-.1 0-5-2.4-5.7-3-3.1-1.8-6.7-2.3-14.6-9.8L81 5.6c-.8-.7-1.3 0-2.8-2.3C77.2 1.9 75.6 0 74 0c-1 0-2.5 1-3.5 2.5-.4.6-2.7 3-3 3.3-1.2.7-3.6 3-4.2 3.6q-.4.3-.3.4-.6.2-1.6 1c-2.2 2-3.5 2.6-5 3.5l-1.7 1c-1.8 1.1-3 1.9-9 4.8l-1 .5c-.3 0 0 .2-.2.3s-3 1-3.2 1.2c-3.9 1.8-4.3 1.6-6.1 2.3-8.4 3.2-8.6 3-8.8 3.2-.3.4-2.3.3-4.3 1.2l-.7.3c-.2 0-.8.1-3.3.9-.6.2-3.8 1.2-6.4 3q-.6.5-.8.4c-.2-.2-2.3.9-2.6 1.3C6 39.2 6 47 5.8 52.1 5 62.9 4.7 61.6 4.4 64.5c-.3 4.5-1 5.3-1.3 8.5-3.7 26.3-3 27.2-3 29.6 0 1.7.3 5.7.5 6.2q1 2.4 3 2.6c.5.1 26.2 1.7 27.4 1.1.7-.3 5-.5 5.2-.7s3-.3 3-.5c.1-.3-.2-.3 2.3-.6 5-.5 4.3-1.4 8.4-2 6.8-1 14-5.6 20-8.6zM7.8 83.2c0-.5.5-.4.6.1.2.6 0 13.4-.4 15.5q-1.1 5.5-.7 6.4c.2.4-.6.7-.8.4 0-15.3.4-10.8.6-15s.7-6.6.7-7.4m133.9 21.4c.4 4.4-14.2 0-17 0l-.3-.2c0-.1-1.6-.1-1.6-.3 0-.6-5.6-1.1-10.8-2.3-2-.4-1.9-.6-3-.6-2.5 0-3.2-.4-5.7-1.3-2.1-.9-5-1.2-7.3-1.5-.7 0-1.5-.3-5-2.2-1-.7-5.5-3-6-3a37 37 0 0 0-13.6-.8c-2 .6-1 .7-5 1.1-2.3.3-4.1.8-4.4 1 0 .2-2.4.8-3.3 1.1a54 54 0 0 0-10.9 4.4c-.3.3-4.7 1-5 1.4 0 0-1.9.9-5.7 1.2q-.9 0-1 .2-24.8 2.9-27.2 1.7l.7-4.2c4.5-60.6 4.1-61 6.6-62.5 2-1.2 3-1.3 5-2a107 107 0 0 0 17.1-6 73 73 0 0 0 29.6-16.4q4.8-3.5 5.5-4.7.2-.3.6-.3c.5 0-1.2-.5 4.5 3.8 2.1 1 2.4 1 4.7 3.1 3.2 3 2.6 2 2.7 2q.1 0 0 .1c0 .2.7.5 1.1.9 14.3 8.5 18.9 9.9 19 10.1a94 94 0 0 1 16.2 7.2c2.4 1.9 5.4 2.8 8.3 4.3 1.5.8 2.1 5.5 2.4 5.7l.1 1.4zm-103-.5c.5-.3 1.8-.2 1.5.1-.2.3 1 .2-.5.4-1.6.2-2 .7-3.2.6h-1.2a47 47 0 0 1-14.5 1.3q-.9-.6 1.7-.8c1 0 1.2-.3 5.6-.5q9.1-.6 10.5-1.2m25.5-8.3v.4l-4.7 2.3c-7.7 3.4-6.8 3.1-8.6 3.4-1.4.1-2 .3-4 1-3.8 1.4-5.4 1.7-6.3 1.2-1-.6 5.1-1.5 5.8-1.9.1 0 .7-.3 3-.8 1.7-.5 3.6-2 10.2-4.1q4.2-1.8 4.6-1.5m18-.7c-.2 0-.2-.5 0-.7 1-1 17.3 6 21 7.3 5.4 2 11.5 2.6 17.1 3.8.8.4-4.3.5-5 .1C89.2 98.6 84.1 96 84 96zm38.7 10.6c.3-.1 2-.2 2 .5s-2.5-.2-2-.5m4.8-70.6c.8.3 1.6.3 1.4.4l2.5 1c1.5.7 2 .7 2.2 1.1.5 1.6-1.8 0-3.6-.6-1.7-.6-5-2.9-2.5-1.9m8.8 3.4c.4 0 .4.9 0 .9-.6 0-.5-.9 0-.9m.2 3.1c.7.1.6 3.7 1 4.9 1.4 18.6 1.3 19.2.8 15.2-1-4.8-3.6-20.4-1.8-20"
  /><path
    d="m101.9 95.6 1.9.3 2.8 1c5 2 8 2.2 8.7 2.7.3.1 3.3.3 3.9.7l6.3.5c3.4 1.4 3.4-1.1 1-2.6-1.3-.7-1-.7-1.5-.8-2.3-.4-10.8-1-12.4-3.4l-.8-.2c-.6-.5-1.9-.5-1.9-.7 0-.4-6.8-.7-6.8-3.8 0-1.2-.9-2.2-.9-5.3v-1.4c-1-19.2-1.1-19.3-1.4-19.3-.4.2.2-.2 0-.2-.4 0-1 .8-1.3.3l-.8-.5h-.3c-.4.4-1.2-1.8-1.5 4.1l-.2 2.4a77 77 0 0 0-.4 14.5l.4.8c.3.8-.4 8.5 1.5 9.4zM100 68l.8 19.8c.6 3.8 1.4 4.9 2 4.9l1.1.4c1 0-.5.4-1.4.1l-1-.2c-1-.3-.7-1.4-.9-1.8a17 17 0 0 1-1.5-5.3c-.4-1.8-.5-14.7-.1-17.1q.1-1.4.7-1zm5.8 25.6c1 .2.3 1-.3.6-.6-.3-.4-.8.3-.6m2.4 1.6q-1.1-.4-1-.7c.3-.4 1.6.3 2.6.5 1.2.3-.2 1-.8.6zm4.4.5c.7 0 .5 1.1-.2.7s-.3-.7.2-.7"
  /><path
    d="M37.6 40.3q.6-.1.7.2c0 .2-3 1.8-3.5 1.8s-6 1.6-6.7 1.9c-1.1.4-2.2.7-5.3 1l-1.4.3c-.6.1.2-.6-.8 0-.7.5-1 1.3-.3 1.5l.4.3c0 .2 1.1.2 1.2 0l2.3-.4.4-.3c6-1.1 5.7-1.3 6-1.3 4.5-1.1 4.3-1.4 4.7-1.4.3 0 2-.7 2.3-1 .3-.2.5 0 3.6-1.5 1.3-.6 1.7-.5 2-.7l8.2-2.8c.7-.5 1.7.1 2 1.1.2.6.6 1.5 2 4.1 5.8 12.1 7.8 13.6 11 19.3 1.4 2.3 3.7 8 6.5 8.3 1.3.2.8.4 1.3 2.8.5 2 .4 9.6.1 9.9-.4.5.2 1.3 1.4 1.4s.2 1.7.7 2.4c.3.2 0 .1.3.4.5.4 1.6.2 1.6-2v-1.4c-.3-.3-.3-15.7 0-16 .2-.6.3-12.9-.1-13.5s0-2.5-.2-2.8l-.2-1.4c-.2-2-2.4-38.4-4.4-38.1-.8 0-3.8 3.5-3.8 4.4 0 .2-.3.6-1.6 2.6a10 10 0 0 1-2.1 2.6c-5.4 3.6-4.6 2.9-12.5 7s-16.9 6-24.5 10c-1.4.6-3 .8-3 1 .1.1-3.3.2-3.5.5l-1.3.2c-3.3.3-2.9 3.3-1.6 3.9q1 .6 1.8 0c.5-.2 2.5-.5 3-.3s3.7-.8 4.4-1.2c2.4-1 6.8-1.9 7-2zM54.3 37c-.4-2.6-4.5 0-4.5-.7q0-.3.3-.4l3.4-1.2c.8.4-2.8-2.2 6 10.8a248 248 0 0 1 11 18.2c.8 1.4 4.8 5.8 2.6 5.3-3-.7-5.9-9.5-8.1-11.8-.5-.5-2.3-3.4-3.5-5.7zM73 62.6c-.5.3-.4-.5-2.5-3.7q-3-4.5-5.4-9a42 42 0 0 1-3.4-6.9c-2-3.5-2.4-7.1-2.7-7.3S69 22.4 70 24c.2.2.2 1.5.3 6zm-1.5-41.2c1-1 1.1-.8 1.1 1 1.6 30 2.6 30.7 2.7 34.9a109 109 0 0 1 .6 14.3c-.3 0-1.5-3.6-1-3.6s.2 0 0-4c-4-41.6-4-41.8-3.4-42.5m8-4.7c-.6 0-.3.3-.6.3q-.8.2-.4 1.3c.3.6 2.1 2.4 2.8 2.8l1.2.9c1.1 1 5 1.5 6 4.6 1.2 65 1.7 66 2.6 65.2.4-.4 1.1-.6 1.1-.3s1.3 0 1.3-.5c0-.2.2 0 .1-.6 0-58.7 0-58.5 2-57.5 6.2 3.3 6 4.1 9 5.6 5 2.4 9.8 5.9 15.2 7.2q.7 0 .9.3c.2.2 1.8.6 2 .6.3 0 0 .3 1.1.3l1-.1v-.1q.5 0 .7-.7c.2-.7-.5-1-.7-1-.2.1-1.3 0-2.5-.5-1.3-.6-2-.7-3.1-1-7-2-15.3-6.2-20.7-10.7-.9-.9-5.5-2.9-5.5-3.7 0-.3.5 0 .9 0 1.4 0 6.3 3.5 7 4.2q1 1 12.2 6.1c7.3 2.6 7 2.9 7.4 2.9.7 0 2.8 1.3 4 1.3l.5.1c-.2.2 1.1.6 2.4.7 1.1 0 1.3 0 1.5-.2.9-1 .5-1.1-2.2-2.4l-1.6-.5c-.2 0 .6.5-3.5-1.3-15.6-5.6-28-14.4-42.2-23.3M92 28c.7.7-.2.7-.5 1.4-.6 1-.8 0-.8-.8q0-1.6 1.3-.6m-1.2 41q.3-.5.7-.1c.1.2.3 6.6 0 6.9-.6.7-.8.5-.8-3.4z"
  /></svg>
